<?xml version="1.0" standalone="no"?>
<!DOCTYPE svg PUBLIC "-//W3C//DTD SVG 20010904//EN"
 "http://www.w3.org/TR/2001/REC-SVG-20010904/DTD/svg10.dtd">
<svg version="1.0" xmlns="http://www.w3.org/2000/svg"
 width="380.000000pt" height="380.000000pt" viewBox="0 0 380.000000 380.000000"
 preserveAspectRatio="xMidYMid meet">
<metadata>
Created by potrace 1.11, written by Peter Selinger 2001-2013
</metadata>
<g transform="translate(0.000000,380.000000) scale(0.100000,-0.100000)"
fill="#000000" stroke="none">
<path d="M3344 3667 c-9 -10 -127 -120 -239 -222 -16 -15 -84 -78 -150 -139
-125 -117 -237 -220 -319 -296 -27 -25 -59 -54 -70 -65 -12 -11 -73 -67 -136
-125 -63 -58 -121 -112 -130 -120 -64 -60 -247 -228 -264 -243 -12 -10 -47
-43 -78 -73 l-57 -55 -68 63 c-38 35 -115 106 -172 158 -57 52 -109 100 -115
105 -6 6 -94 87 -196 180 -102 93 -203 186 -225 206 -22 21 -53 50 -70 65 -38
35 -224 205 -290 266 -27 25 -61 56 -75 68 -13 11 -54 48 -90 82 -36 34 -86
81 -112 105 l-47 43 -220 0 -220 0 4 -322 c2 -178 4 -378 4 -445 1 -105 4
-126 19 -140 10 -10 65 -61 122 -113 57 -52 111 -102 119 -111 9 -8 84 -78
166 -154 150 -139 341 -316 419 -389 108 -101 170 -158 262 -243 54 -50 113
-104 129 -120 17 -15 84 -77 150 -138 65 -60 128 -119 139 -130 12 -11 80 -74
151 -140 72 -66 136 -126 144 -133 41 -39 57 -44 95 -28 20 8 43 21 50 28 7 7
71 67 141 133 71 66 140 131 155 145 15 14 58 54 96 89 128 120 338 316 414
388 41 39 85 80 97 90 12 11 81 75 153 143 72 68 140 131 149 139 10 9 76 71
147 137 71 67 145 136 164 154 19 18 93 87 164 154 71 66 132 123 137 124 5 2
9 204 9 448 l0 444 -222 0 c-162 -1 -226 -4 -234 -13z"/>
<path d="M9 1784 c0 -115 -2 -539 -4 -942 l-4 -732 414 0 415 0 0 559 c0 308
-4 561 -9 563 -4 2 -68 59 -141 128 -150 142 -157 149 -340 320 -74 69 -143
134 -154 145 -12 11 -56 54 -98 94 l-78 74 -1 -209z"/>
<path d="M3684 1892 c-55 -54 -156 -149 -224 -212 -68 -63 -146 -137 -174
-163 -28 -27 -78 -74 -111 -104 -33 -31 -93 -87 -132 -125 l-73 -70 0 -554 0
-554 415 0 415 0 -5 937 c-3 515 -7 938 -8 939 -1 1 -47 -41 -103 -94z"/>
</g>
</svg>
